<?xml version="1.0" encoding="UTF-8" standalone="no"?>
<svg width="105px" height="32px" viewBox="0 0 105 32" version="1.1" xmlns="http://www.w3.org/2000/svg" xmlns:xlink="http://www.w3.org/1999/xlink" xmlns:sketch="http://www.bohemiancoding.com/sketch/ns">
    <!-- Generator: Sketch 3.3.3 (12081) - http://www.bohemiancoding.com/sketch -->
    <title>layer1</title>
    <desc>Created with Sketch.</desc>
    <defs></defs>
    <g id="Page-1" stroke="none" stroke-width="1" fill="none" fill-rule="evenodd" sketch:type="MSPage">
        <g id="Homepage-Copy" sketch:type="MSArtboardGroup" transform="translate(-104.000000, -861.000000)">
            <g id="Recommendation" sketch:type="MSLayerGroup" transform="translate(83.000000, 725.000000)">
                <g id="Group" transform="translate(0.000000, 97.000000)" sketch:type="MSShapeGroup">
                    <g id="Oval-61-+-logo-icon-white" transform="translate(0.000000, 1.000000)">
                        <g id="Group">
                            <g id="amazon">
                                <g id="layer1" transform="translate(21.106909, 38.035269)">
                                    <g id="g1967" transform="translate(0.014178, 0.014036)">
                                        <path d="M64.9136762,24.6891312 C58.8393863,29.1513825 50.0350738,31.5321548 42.4547248,31.5321548 C31.8258525,31.5321548 22.25714,27.6140835 15.0180391,21.0975671 C14.4492862,20.5851312 14.9588868,19.8867736 15.6413937,20.2858344 C23.4537946,24.8161072 33.1135135,27.5415265 43.0917312,27.5415265 C49.8212226,27.5415265 57.2241236,26.1538733 64.0309698,23.2742729 C65.0592774,22.8389293 65.9192326,23.9454236 64.9136762,24.6891312" id="path8" fill="#FF9900"></path>
                                        <path d="M67.4389453,21.8095308 C66.6654372,20.8209436 62.3065088,21.3424467 60.3499961,21.5737219 C59.7539398,21.6462789 59.6629421,21.1293111 60.1998426,20.7574538 C63.6715175,18.3222642 69.368158,19.0251589 70.0324626,19.8414236 C70.6967638,20.6622253 69.8595615,26.353408 66.5971872,29.0697531 C66.0966843,29.4869552 65.6189308,29.2647524 65.8418849,28.7115036 C66.5744378,26.888512 68.2170005,22.8026534 67.4389453,21.8095308" id="path10" fill="#FF9900"></path>
                                        <path d="M60.4864979,3.56600735 L60.4864979,1.19883935 C60.4864979,0.840589838 60.7594996,0.600245622 61.0871013,0.600245622 L71.7205207,0.600245622 C72.061776,0.600245622 72.3347777,0.845125189 72.3347777,1.19883935 L72.3347777,3.22589751 C72.3302306,3.56600735 72.0435754,4.01041816 71.5339696,4.71331286 L66.0238837,12.5539926 C68.0713993,12.5041124 70.2326638,12.8079412 72.089076,13.8509475 C72.5076788,14.0867563 72.6214294,14.4314015 72.65328,14.7715148 L72.65328,17.2974011 C72.65328,17.6420463 72.2710765,18.0456406 71.8706742,17.8370422 C68.5992005,16.1274188 64.2539221,15.9414919 60.6366479,17.8551818 C60.2680961,18.0547131 59.8813438,17.6556506 59.8813438,17.3110054 L59.8813438,14.9120934 C59.8813438,14.5266352 59.8858909,13.8690854 60.2726432,13.284096 L66.6563378,4.16006746 L61.1007513,4.16006746 C60.7594996,4.16006746 60.4864979,3.91972497 60.4864979,3.56600735" id="path12" fill="#221F1F"></path>
                                        <path d="M21.6974831,18.3358685 L18.4624122,18.3358685 C18.1530128,18.313197 17.9073093,18.0819217 17.8845582,17.7871568 L17.8845582,1.23965578 C17.8845582,0.908614919 18.1621105,0.645593946 18.5079128,0.645593946 L21.5245819,0.645593946 C21.8385371,0.659189622 22.088786,0.899542486 22.1115389,1.19883935 L22.1115389,3.36194422 L22.1706894,3.36194422 C22.9578441,1.27139632 24.4366016,0.296413405 26.4295173,0.296413405 C28.4542799,0.296413405 29.719188,1.27139632 30.6291944,3.36194422 C31.4118002,1.27139632 33.1908612,0.296413405 35.0973262,0.296413405 C36.4532355,0.296413405 37.9365453,0.854194162 38.8420011,2.10580065 C39.865758,3.49798573 39.6564557,5.52050854 39.6564557,7.29361989 L39.6519069,17.7372765 C39.6519069,18.0683174 39.3743546,18.3358685 39.0285522,18.3358685 L35.7980285,18.3358685 C35.4749791,18.313197 35.2156274,18.0547131 35.2156274,17.7372765 L35.2156274,8.96696216 C35.2156274,8.26860281 35.279325,6.52723719 35.1246262,5.86515373 C34.883475,4.7541293 34.1600198,4.44122465 33.2227117,4.44122465 C32.440106,4.44122465 31.6211008,4.96272778 31.2889484,5.79713384 C30.9567961,6.63153816 30.9886467,8.02825514 30.9886467,8.96696216 L30.9886467,17.7372765 C30.9886467,18.0683174 30.7110944,18.3358685 30.3652921,18.3358685 L27.1347719,18.3358685 C26.8071702,18.313197 26.5523673,18.0547131 26.5523673,17.7372765 L26.5478184,8.96696216 C26.5478184,7.1212973 26.8526673,4.40494703 24.5549045,4.40494703 C22.2298365,4.40494703 22.3208377,7.05327222 22.3208377,8.96696216 L22.3208377,17.7372765 C22.3208377,18.0683174 22.0432854,18.3358685 21.6974831,18.3358685" id="path14" fill="#221F1F"></path>
                                        <path d="M81.4894396,0.296413405 C86.289722,0.296413405 88.8877882,4.40494703 88.8877882,9.62904389 C88.8877882,14.6762811 86.0167168,18.6805137 81.4894396,18.6805137 C76.775606,18.6805137 74.2093869,14.5719801 74.2093869,9.45218595 C74.2093869,4.30064605 76.8074566,0.296413405 81.4894396,0.296413405 M81.5167379,3.67484541 C79.1325245,3.67484541 78.9823711,6.91269362 78.9823711,8.93068454 C78.9823711,10.9532074 78.9505205,15.2703412 81.4894396,15.2703412 C83.9965064,15.2703412 84.1148075,11.7876134 84.1148075,9.66531978 C84.1148075,8.26860281 84.0556569,6.59979416 83.6325017,5.27562897 C83.2684988,4.12379157 82.5450471,3.67484541 81.5167379,3.67484541" id="path16" fill="#221F1F"></path>
                                        <path d="M95.1122316,18.3358685 L91.8908107,18.3358685 C91.5677561,18.313197 91.3084044,18.0547131 91.3084044,17.7372765 L91.3038573,1.18523503 C91.3311573,0.881402811 91.5996102,0.645593946 91.9272119,0.645593946 L94.9256839,0.645593946 C95.2077833,0.659189622 95.439835,0.849660541 95.5035379,1.10814443 L95.5035379,3.63856432 L95.562685,3.63856432 C96.4681443,1.3756973 97.7375995,0.296413405 99.9716645,0.296413405 C101.423124,0.296413405 102.838185,0.817916541 103.748192,2.24637924 C104.594497,3.5705427 104.594497,5.79713384 104.594497,7.39791741 L104.594497,17.8143689 C104.558098,18.1045933 104.289645,18.3358685 103.971146,18.3358685 L100.726972,18.3358685 C100.431217,18.313197 100.185516,18.0955261 100.153669,17.8143689 L100.153669,8.82638357 C100.153669,7.01699632 100.362969,4.36866768 98.1289024,4.36866768 C97.3417495,4.36866768 96.6182926,4.89470789 96.2588402,5.69283114 C95.8038397,6.70409514 95.7446891,7.71082205 95.7446891,8.82638357 L95.7446891,17.7372765 C95.740142,18.0683174 95.4580374,18.3358685 95.112235,18.3358685" id="path18" fill="#221F1F"></path>
                                        <path d="M52.0097888,10.4317042 C52.0097888,11.6878443 52.0416394,12.7353842 51.4046348,13.8509475 C50.8904819,14.7579105 50.0714767,15.3156912 49.1660209,15.3156912 C47.9238622,15.3156912 47.1958582,14.3724489 47.1958582,12.9802638 C47.1958582,10.232173 49.6665238,9.73334486 52.0097888,9.73334486 L52.0097888,10.4317042 M55.2721614,18.2905202 C55.058312,18.4809825 54.7489074,18.4945868 54.5077562,18.3676143 C53.4339481,17.4787926 53.2382975,17.0661258 52.651344,16.2181172 C50.8768319,18.0229691 49.6164709,18.5626084 47.3187064,18.5626084 C44.5932379,18.5626084 42.4774742,16.8892662 42.4774742,13.538048 C42.4774742,10.9214634 43.8970862,9.13928476 45.9263995,8.26860281 C47.6827111,7.49768303 50.1351744,7.36164151 52.0097888,7.14850595 L52.0097888,6.73130378 C52.0097888,5.96491935 52.0689394,5.05795805 51.6139371,4.39587978 C51.2226342,3.80181795 50.4673267,3.55693838 49.798475,3.55693838 C48.565414,3.55693838 47.4688599,4.18727611 47.2004053,5.49329989 C47.1458053,5.78352951 46.9319559,6.06922205 46.6362012,6.08282638 L43.5012312,5.74724843 C43.2373289,5.68829924 42.9415777,5.47516022 43.0189289,5.07156584 C43.7378333,1.28046876 47.1776576,0.137695135 50.2534755,0.137695135 C51.8277883,0.137695135 53.8844016,0.554897297 55.1265602,1.74301578 C56.7008695,3.20775784 56.5507195,5.16225903 56.5507195,7.28908454 L56.5507195,12.3136484 C56.5507195,13.8237405 57.178623,14.4858188 57.770127,15.3020869 C57.9748805,15.5923114 58.0203811,15.9414919 57.7564683,16.1591628 C57.0967143,16.7078763 55.9228056,17.7282076 55.2767016,18.2995926 L55.2721545,18.2905116" id="path28" fill="#221F1F"></path>
                                        <path d="M9.59895439,10.4317042 C9.59895439,11.6878443 9.6308015,12.7353842 8.99380017,13.8509475 C8.4796438,14.7579105 7.66518917,15.3156912 6.75518281,15.3156912 C5.51302413,15.3156912 4.78957066,14.3724489 4.78957066,12.9802638 C4.78957066,10.232173 7.26023628,9.73334486 9.59895439,9.73334486 L9.59895439,10.4317042 M12.8613252,18.2905202 C12.6474741,18.4809825 12.3380694,18.4945868 12.0969183,18.3676143 C11.0231136,17.4787926 10.8320102,17.0661258 10.2405061,16.2181172 C8.4659938,18.0229691 7.2101886,18.5626084 4.90787008,18.5626084 C2.18695041,18.5626084 0.0666394215,16.8892662 0.0666394215,13.538048 C0.0666394215,10.9214634 1.49079868,9.13928476 3.5155614,8.26860281 C5.27187298,7.49768303 7.72433975,7.36164151 9.59895439,7.14850595 L9.59895439,6.73130378 C9.59895439,5.96491935 9.65810497,5.05795805 9.2076515,4.39587978 C8.81179612,3.80181795 8.0564938,3.55693838 7.39218744,3.55693838 C6.15913165,3.55693838 5.05802182,4.18727611 4.78957066,5.49329989 C4.73496893,5.78352951 4.52111777,6.06922205 4.22991719,6.08282638 L1.09039636,5.74724843 C0.82649405,5.68829924 0.535291736,5.47516022 0.608092314,5.07156584 C1.33154752,1.28046876 4.7668195,0.137695135 7.84264264,0.137695135 C9.41695034,0.137695135 11.4735636,0.554897297 12.7157223,1.74301578 C14.290035,3.20775784 14.1398816,5.16225903 14.1398816,7.28908454 L14.1398816,12.3136484 C14.1398816,13.8237405 14.7677885,14.4858188 15.3592926,15.3020869 C15.5685931,15.5923114 15.6140937,15.9414919 15.3501914,16.1591628 C14.6904374,16.7078763 13.5165304,17.7282076 12.8704229,18.2995926 L12.8613252,18.2905116" id="path30" fill="#221F1F"></path>
                                    </g>
                                </g>
                            </g>
                        </g>
                    </g>
                </g>
            </g>
        </g>
    </g>
</svg>