<?xml version="1.0" encoding="UTF-8" standalone="no"?>
<svg width="132px" height="33px" viewBox="0 0 132 33" version="1.1" xmlns="http://www.w3.org/2000/svg" xmlns:xlink="http://www.w3.org/1999/xlink" xmlns:sketch="http://www.bohemiancoding.com/sketch/ns">
    <!-- Generator: Sketch 3.3.3 (12081) - http://www.bohemiancoding.com/sketch -->
    <title>Bigcommerce_logo_horz_no-tag</title>
    <desc>Created with Sketch.</desc>
    <defs>
        <path id="path-1" d="M0,0.16054382 L131.837787,0.16054382 L131.837787,32.3781573 L0,32.3781573"></path>
    </defs>
    <g id="Page-1" stroke="none" stroke-width="1" fill="none" fill-rule="evenodd" sketch:type="MSPage">
        <g id="Homepage-Copy" sketch:type="MSArtboardGroup" transform="translate(-261.000000, -1096.000000)">
            <g id="Recommendation" sketch:type="MSLayerGroup" transform="translate(83.000000, 725.000000)">
                <g id="Group" transform="translate(0.000000, 97.000000)">
                    <g id="Bigcommerce_logo_horz_no-tag" transform="translate(177.990742, 274.525000)">
                        <path d="M33.6211553,16.0503775 L35.7140926,16.0503775 C36.6528392,16.0503775 37.3556403,16.2014562 37.8019946,16.5021573 C38.2264087,16.7861124 38.4325014,17.2269708 38.4325014,17.8476674 C38.4325014,18.5215146 38.2292861,19.0009618 37.8099074,19.3071236 C37.3772207,19.6256629 36.7100272,19.7876629 35.8252316,19.7876629 L33.6211553,19.7876629 L33.6211553,16.0503775 L33.6211553,16.0503775 Z M37.5592153,14.1391416 C37.1790409,14.3997978 36.5309101,14.531582 35.6274114,14.531582 L33.6211553,14.531582 L33.6211553,11.3119685 L35.3900272,11.3119685 C36.3586267,11.3119685 37.0693406,11.4397483 37.4995095,11.6964 C37.8980272,11.9341213 38.0922507,12.3156404 38.0922507,12.8649843 C38.0922507,13.4758517 37.9170899,13.8904989 37.5592153,14.1391416 L37.5592153,14.1391416 Z M38.1789319,15.2265438 C38.6281635,15.0616315 38.9957493,14.8213618 39.2748556,14.5082831 C39.6913569,14.0415775 39.9017657,13.4445438 39.9017657,12.7361124 C39.9017657,11.7087775 39.5233896,10.9453753 38.7770681,10.464836 C38.0501689,9.99813034 36.9240327,9.7702382 35.3342779,9.7702382 L31.8576785,9.7702382 L31.8576785,21.3155596 L36.1021798,21.3155596 C37.4002398,21.3155596 38.4299837,21.0177708 39.1622779,20.4316584 C39.9111172,19.8342607 40.2898529,18.9955011 40.2898529,17.9383146 C40.2898529,16.5542157 39.580218,15.6437393 38.1789319,15.2265438 L38.1789319,15.2265438 Z" id="Fill-1" fill="#1B3B4F" sketch:type="MSShapeGroup"></path>
                        <path d="M41.9961417,12.5544539 L43.727248,12.5544539 L43.727248,21.3155596 L41.9961417,21.3155596 L41.9961417,12.5544539 Z" id="Fill-2" fill="#1B3B4F" sketch:type="MSShapeGroup"></path>
                        <path d="M42.1766975,9.71381124 C41.9839128,9.88964494 41.8864414,10.1561258 41.8864414,10.5074292 C41.8864414,10.8507236 41.9828338,11.1157483 42.1723815,11.2955865 C42.3597711,11.4728764 42.5942779,11.5620674 42.8697875,11.5620674 C43.1345068,11.5620674 43.3650572,11.4728764 43.5549646,11.2984989 C43.7527847,11.1186607 43.8545722,10.8521798 43.8545722,10.5074292 C43.8545722,10.1601303 43.7527847,9.89510562 43.5535259,9.71817978 C43.162921,9.36796854 42.540327,9.38289438 42.1766975,9.71381124" id="Fill-3" fill="#1B3B4F" sketch:type="MSShapeGroup"></path>
                        <path d="M48.9809918,16.9961663 C48.4234986,16.9961663 47.9879346,16.8629258 47.6868883,16.5993573 C47.3883597,16.3401573 47.2444905,15.9597303 47.2444905,15.4351416 C47.2444905,14.8694157 47.3897984,14.442391 47.6771771,14.1664449 C47.9688719,13.8879506 48.3990409,13.7448809 48.9579728,13.7448809 C50.143455,13.7448809 50.6955531,14.2749303 50.6955531,15.4132989 C50.6955531,16.4937843 50.1517275,16.9961663 48.9809918,16.9961663 L48.9809918,16.9961663 Z M50.9599128,23.222791 C50.4660817,23.5180315 49.6780381,23.6676539 48.6173624,23.6676539 C47.9199564,23.6676539 47.3829646,23.5591685 47.0222125,23.3465663 C46.6923924,23.1514382 46.5323379,22.8754921 46.5323379,22.5034382 C46.5323379,22.0545708 46.670812,21.7207416 46.9527956,21.4859326 C47.2459292,21.2456629 47.6703433,21.1237079 48.2145286,21.1237079 L49.7880981,21.1237079 C50.7336785,21.1237079 51.1429864,21.2511236 51.3195858,21.3570607 C51.5433025,21.4928494 51.6533624,21.7385798 51.6533624,22.1150022 C51.6533624,22.5802517 51.4253297,22.9439326 50.9599128,23.222791 L50.9599128,23.222791 Z M49.0133624,12.4022831 C47.9228338,12.4022831 47.0628556,12.6698562 46.4564469,13.1959011 C45.8406866,13.7284989 45.5284905,14.4933573 45.5284905,15.4668135 C45.5284905,16.054382 45.6831499,16.5858876 45.9870736,17.0442202 C46.2161853,17.3889708 46.4985286,17.6609124 46.8294278,17.8560404 C46.5988774,18.0205888 46.4211989,18.1909618 46.2909973,18.3678876 C46.0956948,18.6329124 45.9964251,18.9430787 45.9964251,19.2932899 C45.9964251,19.6078247 46.0859837,19.8877753 46.2636621,20.1265888 C46.3302016,20.2161438 46.4035749,20.298418 46.484861,20.371227 C46.0453406,20.5277663 45.6845886,20.7571146 45.4105177,21.0578157 C45.0375368,21.4666382 44.8490681,21.9595551 44.8490681,22.5172719 C44.8490681,23.3298202 45.1907575,23.9668989 45.8651444,24.413218 C46.5107575,24.8402427 47.4318801,25.0572135 48.6011771,25.0572135 C50.1107248,25.0572135 51.2814605,24.8016539 52.081733,24.2978157 C52.913297,23.7746831 53.3366322,23.0047281 53.3366322,22.007609 C53.3366322,21.2154472 53.0532098,20.6016674 52.4957166,20.1804674 C51.9583651,19.7738292 51.1879455,19.5677798 50.2085559,19.5677798 L48.6731117,19.5677798 C48.1274877,19.5677798 47.880752,19.4938787 47.7696131,19.4305348 C47.6394114,19.359182 47.5851008,19.2630742 47.5851008,19.1094472 C47.5851008,18.7785303 47.8019837,18.4971236 48.2483379,18.2579461 C48.4695368,18.2925303 48.7026049,18.3103685 48.9414278,18.3103685 C49.9995858,18.3103685 50.8487738,18.0478921 51.4645341,17.5305843 C52.0914441,17.0045393 52.4101144,16.2921034 52.4101144,15.4132989 C52.4101144,15.0274112 52.3464523,14.6746517 52.2202071,14.3630292 C52.1536676,14.199573 52.081733,14.0499506 52.0044033,13.9181663 L53.4463324,13.7532539 L53.4463324,12.5544539 L50.2682616,12.5544539 C49.893842,12.4528854 49.4719455,12.4022831 49.0133624,12.4022831 L49.0133624,12.4022831 Z" id="Fill-4" fill="#1B3B4F" sketch:type="MSShapeGroup"></path>
                        <path d="M58.3760109,13.9440135 C58.625624,13.9440135 58.9173188,13.9785978 59.2428229,14.0484944 C59.5712044,14.1198472 59.8805232,14.2090382 60.1610681,14.3175236 L60.3563706,14.3932449 L60.9019946,12.9417978 L60.7297112,12.8566112 C60.4772207,12.7332 60.1301362,12.6247146 59.6999673,12.5369798 C59.2726757,12.4474247 58.8385504,12.4022831 58.4087411,12.4022831 C57.0617657,12.4022831 56.0061253,12.8085573 55.268436,13.6120045 C54.535782,14.4081708 54.1653188,15.5450831 54.1653188,16.9881573 C54.1653188,18.395191 54.5318256,19.5062562 55.2533297,20.2860404 C55.9791499,21.0687371 57.0114114,21.4655461 58.3206213,21.4655461 C59.2291553,21.4655461 59.9970572,21.3144674 60.6049046,21.0123101 L60.7214387,20.9533348 L60.7214387,19.3948584 L60.4365777,19.5062562 C59.7039237,19.7945798 58.9809809,19.9398337 58.2893297,19.9398337 C57.5052425,19.9398337 56.9340817,19.6970157 56.5420381,19.1986382 C56.1445995,18.6918876 55.9424632,17.9423191 55.9424632,16.9728674 C55.9424632,14.9342157 56.7387793,13.9440135 58.3760109,13.9440135" id="Fill-5" fill="#1B3B4F" sketch:type="MSShapeGroup"></path>
                        <path d="M65.9046866,19.9853393 C65.1044142,19.9853393 64.5185068,19.7381528 64.1127956,19.2288539 C63.7031281,18.7126382 63.494158,17.9383146 63.494158,16.9262697 C63.494158,15.9062157 63.7002507,15.1358966 64.1045232,14.6335146 C64.5048392,14.1391416 65.0882289,13.8974157 65.8885014,13.8974157 C66.7010027,13.8974157 67.2937439,14.1431461 67.7005341,14.6458921 C68.113079,15.155191 68.322049,15.9211416 68.322049,16.9262697 C68.322049,17.9408629 68.113079,18.7166427 67.699455,19.2314022 C67.2923052,19.739609 66.7049591,19.9853393 65.9046866,19.9853393 L65.9046866,19.9853393 Z M65.9291444,12.4022831 C64.6199346,12.4022831 63.5783215,12.8071011 62.8334387,13.6061798 C62.0928719,14.4012539 61.7159346,15.5188719 61.7159346,16.9262697 C61.7159346,17.8338337 61.888218,18.6398292 62.2299074,19.3195011 C62.5730354,20.0086382 63.0697439,20.5426921 63.7045668,20.9136539 C64.3339946,21.2802472 65.0637711,21.4655461 65.8719564,21.4655461 C67.1811662,21.4655461 68.2256567,21.0589079 68.9759346,20.2543685 C69.7218965,19.4552899 70.1017112,18.3351236 70.1017112,16.9262697 C70.1017112,15.5545483 69.7218965,14.4467596 68.9716185,13.6338472 C68.2202616,12.8169303 67.1962725,12.4022831 65.9291444,12.4022831 L65.9291444,12.4022831 Z" id="Fill-6" fill="#1B3B4F" sketch:type="MSShapeGroup"></path>
                        <path d="M81.4612643,12.4022831 C80.8034223,12.4022831 80.2078038,12.5380719 79.689515,12.806009 C79.2636621,13.0269843 78.9137003,13.316764 78.6489809,13.6695236 C78.1526322,12.8278517 77.2451771,12.4022831 75.9388447,12.4022831 C75.3514986,12.4022831 74.8101907,12.5246022 74.3314659,12.7674202 C73.9800654,12.9458022 73.6815368,13.1795191 73.4427139,13.4594697 L73.2747466,12.5544539 L71.8231063,12.5544539 L71.8231063,21.3155596 L73.5542125,21.3155596 L73.5542125,16.7300494 C73.5542125,15.7041708 73.731891,14.9644315 74.0804142,14.531582 C74.4181471,14.110382 74.9716839,13.8974157 75.7259183,13.8974157 C76.2902452,13.8974157 76.7024305,14.0415775 76.954921,14.3273528 C77.2138856,14.6156764 77.3455259,15.0714607 77.3455259,15.6797798 L77.3455259,21.3155596 L79.0762725,21.3155596 L79.0762725,16.4486427 C79.0762725,15.5669258 79.2553896,14.9134652 79.6096676,14.5028225 C79.9553134,14.102009 80.5117275,13.8974157 81.2630845,13.8974157 C81.8220163,13.8974157 82.2316839,14.0415775 82.4866921,14.3273528 C82.743139,14.6156764 82.8747793,15.0714607 82.8747793,15.6797798 L82.8747793,21.3155596 L84.6069646,21.3155596 L84.6069646,15.6644899 C84.6069646,14.5454157 84.3382888,13.7121169 83.8106485,13.1889843 C83.2855259,12.6658517 82.4949646,12.4022831 81.4612643,12.4022831" id="Fill-7" fill="#1B3B4F" sketch:type="MSShapeGroup"></path>
                        <path d="M96.3704305,12.4022831 C95.7111499,12.4022831 95.1173297,12.5380719 94.5990409,12.806009 C94.1717493,13.0269843 93.8217875,13.316764 93.5570681,13.6695236 C93.062158,12.8278517 92.1532643,12.4022831 90.8494496,12.4022831 C90.2610245,12.4022831 89.7182779,12.5246022 89.2395531,12.7674202 C88.8867139,12.9458022 88.589624,13.1795191 88.3522398,13.4594697 L88.1813951,12.5544539 L86.7311935,12.5544539 L86.7311935,21.3155596 L88.4619401,21.3155596 L88.4619401,16.7300494 C88.4619401,15.7041708 88.6399782,14.9644315 88.9899401,14.531582 C89.3291117,14.110382 89.8822888,13.8974157 90.6350845,13.8974157 C91.1983324,13.8974157 91.6105177,14.0415775 91.8644469,14.3273528 C92.1219728,14.6156764 92.2536131,15.0714607 92.2536131,15.6797798 L92.2536131,21.3155596 L93.9843597,21.3155596 L93.9843597,16.4486427 C93.9843597,15.5654697 94.1634768,14.912009 94.5177548,14.5028225 C94.8634005,14.102009 95.4208937,13.8974157 96.1711717,13.8974157 C96.7301035,13.8974157 97.1412098,14.0415775 97.3933406,14.3273528 C97.6523052,14.6156764 97.7839455,15.0714607 97.7839455,15.6797798 L97.7839455,21.3155596 L99.5121744,21.3155596 L99.5121744,15.6644899 C99.5121744,14.5454157 99.2449373,13.7121169 98.7201744,13.1889843 C98.1936131,12.6658517 97.4030518,12.4022831 96.3704305,12.4022831" id="Fill-8" fill="#1B3B4F" sketch:type="MSShapeGroup"></path>
                        <path d="M105.155444,13.8824899 C105.783433,13.8824899 106.249929,14.0663326 106.579749,14.4467596 C106.882234,14.7911461 107.047684,15.2869753 107.077537,15.9240539 L102.995608,15.9240539 C103.086605,15.3142787 103.303847,14.8268225 103.64158,14.4715146 C104.016,14.0757978 104.512349,13.8824899 105.155444,13.8824899 L105.155444,13.8824899 Z M105.170191,12.4022831 C103.953417,12.4022831 102.967193,12.8253034 102.241733,13.6611506 C101.521308,14.4878966 101.154801,15.6124315 101.154801,17.0030831 C101.154801,18.3886382 101.551161,19.4909663 102.329853,20.2791236 C103.107106,21.0672809 104.178572,21.4655461 105.510801,21.4655461 C106.107499,21.4655461 106.625787,21.4229528 107.05164,21.3377663 C107.476414,21.2511236 107.93212,21.1069618 108.406888,20.9107416 L108.53709,20.8557708 L108.53709,19.2754517 L108.248272,19.3923101 C107.364916,19.755991 106.460338,19.9398337 105.558278,19.9398337 C104.734627,19.9398337 104.091891,19.7064809 103.646975,19.2437798 C103.235869,18.8156629 102.999924,18.1880494 102.944174,17.3740449 L108.907553,17.3740449 L108.907553,16.3649124 C108.907553,15.1879551 108.56982,14.2254202 107.902267,13.5006067 C107.230757,12.7714247 106.312512,12.4022831 105.170191,12.4022831 L105.170191,12.4022831 Z" id="Fill-9" fill="#1B3B4F" sketch:type="MSShapeGroup"></path>
                        <path d="M114.731019,12.4022831 C114.150507,12.4022831 113.609199,12.562827 113.124719,12.8773618 C112.767924,13.1067101 112.449253,13.4128719 112.168349,13.7874742 L112.049297,12.5544539 L110.566365,12.5544539 L110.566365,21.3155596 L112.297471,21.3155596 L112.297471,16.6310292 C112.297471,15.8621663 112.524065,15.2389213 112.990561,14.7267101 C113.450223,14.2199596 113.990452,13.9742292 114.637504,13.9742292 C114.89503,13.9742292 115.198954,14.0099056 115.54352,14.0827146 L115.757886,14.1282202 L116.00606,12.5380719 L115.80788,12.498391 C115.490649,12.4339551 115.128458,12.4022831 114.731019,12.4022831" id="Fill-10" fill="#1B3B4F" sketch:type="MSShapeGroup"></path>
                        <path d="M120.74691,13.9440135 C120.996523,13.9440135 121.288218,13.9785978 121.615161,14.0484944 C121.943542,14.1198472 122.252861,14.2090382 122.533766,14.3175236 L122.729068,14.3932449 L123.272894,12.9417978 L123.10061,12.8566112 C122.84848,12.7332 122.502474,12.6247146 122.071226,12.5369798 C121.643575,12.4474247 121.210888,12.4022831 120.77964,12.4022831 C119.434104,12.4022831 118.377384,12.8085573 117.640774,13.6120045 C116.90812,14.4081708 116.536578,15.5450831 116.536578,16.9881573 C116.536578,18.395191 116.902725,19.5062562 117.624229,20.2860404 C118.351488,21.0687371 119.382311,21.4655461 120.69152,21.4655461 C121.601853,21.4655461 122.367956,21.3144674 122.977243,21.0123101 L123.093777,20.9533348 L123.093777,19.3948584 L122.808916,19.5062562 C122.075183,19.7945798 121.353319,19.9398337 120.660229,19.9398337 C119.876142,19.9398337 119.30642,19.6970157 118.914376,19.1986382 C118.516937,18.6918876 118.314801,17.9423191 118.314801,16.9728674 C118.314801,14.9342157 119.109678,13.9440135 120.74691,13.9440135" id="Fill-11" fill="#1B3B4F" sketch:type="MSShapeGroup"></path>
                        <path d="M128.085678,13.8824899 C128.713668,13.8824899 129.180523,14.0663326 129.511422,14.4467596 C129.81139,14.7911461 129.978278,15.2869753 130.008131,15.9240539 L125.923324,15.9240539 C126.017199,15.3142787 126.232643,14.8268225 126.570736,14.4715146 C126.946234,14.0757978 127.442943,13.8824899 128.085678,13.8824899 L128.085678,13.8824899 Z M131.837787,16.3649124 C131.837787,15.1879551 131.500054,14.2254202 130.832861,13.5006067 C130.161351,12.7714247 129.242747,12.4022831 128.100785,12.4022831 C126.884011,12.4022831 125.897787,12.8253034 125.170529,13.6611506 C124.451542,14.4878966 124.086834,15.6124315 124.086834,17.0030831 C124.086834,18.3886382 124.481395,19.4909663 125.260087,20.2791236 C126.037341,21.0672809 127.106289,21.4655461 128.441035,21.4655461 C129.038093,21.4655461 129.556381,21.4229528 129.982234,21.3377663 C130.406649,21.2511236 130.862714,21.1069618 131.336044,20.9107416 L131.466245,20.8557708 L131.466245,19.2754517 L131.178507,19.3923101 C130.29551,19.755991 129.390572,19.9398337 128.488512,19.9398337 C127.663782,19.9398337 127.022485,19.7064809 126.578649,19.2437798 C126.166463,18.8156629 125.929079,18.1880494 125.874768,17.3740449 L131.837787,17.3740449 L131.837787,16.3649124 L131.837787,16.3649124 Z" id="Fill-12" fill="#1B3B4F" sketch:type="MSShapeGroup"></path>
                        <g id="Group-16">
                            <mask id="mask-2" sketch:name="Clip 14" fill="white">
                                <use xlink:href="#path-1"></use>
                            </mask>
                            <g id="Clip-14"></g>
                            <path d="M1.03370027,15.2290921 C0.196741144,13.6298427 0,11.5387685 0,9.24310112 C0,4.22728989 0.903498638,0.16054382 7.47292643,0.16054382 C14.0412752,0.16054382 19.365515,4.22728989 19.365515,9.24310112 C19.365515,10.9399146 18.7454387,12.5216899 17.6847629,13.8810337 C15.2663215,12.2868809 12.1191826,11.3203416 8.67207629,11.3203416 C4.34089373,11.3203416 2.13250136,12.8445978 1.03370027,15.2290921" id="Fill-13" fill="#86BFCC" sketch:type="MSShapeGroup" mask="url(#mask-2)"></path>
                            <path d="M8.67207629,32.4 C1.04844687,32.4 0,27.6797933 0,21.8594427 C0,19.3453483 0.196741144,17.0402157 1.03370027,15.2290921 C2.02244142,17.1239461 3.9107248,18.3252944 7.47292643,18.3252944 C11.8192153,18.3252944 15.6105286,16.5389258 17.6847629,13.8810337 C20.6160981,15.8141124 22.4730899,18.6700449 22.4730899,21.8594427 C22.4730899,27.6797933 16.2957057,32.4 8.67207629,32.4" id="Fill-15" fill="#86BFCC" sketch:type="MSShapeGroup" mask="url(#mask-2)"></path>
                        </g>
                        <path d="M1.03370027,15.2290921 C2.02244142,17.1239461 3.9107248,18.3252944 7.47292643,18.3252944 C11.8192153,18.3252944 15.6105286,16.5389258 17.6847629,13.8810337 C15.2663215,12.2868809 12.1191826,11.3203416 8.67207629,11.3203416 C4.34089373,11.3203416 2.13250136,12.8445978 1.03370027,15.2290921" id="Fill-17" fill="#23A0B6" sketch:type="MSShapeGroup"></path>
                    </g>
                </g>
            </g>
        </g>
    </g>
</svg>