<?xml version="1.0" encoding="UTF-8" standalone="no"?>
<svg width="99px" height="40px" viewBox="0 0 99 40" version="1.1" xmlns="http://www.w3.org/2000/svg" xmlns:xlink="http://www.w3.org/1999/xlink" xmlns:sketch="http://www.bohemiancoding.com/sketch/ns">
    <!-- Generator: Sketch 3.3.3 (12081) - http://www.bohemiancoding.com/sketch -->
    <title>ebay copy</title>
    <desc>Created with Sketch.</desc>
    <defs></defs>
    <g id="Page-1" stroke="none" stroke-width="1" fill="none" fill-rule="evenodd" sketch:type="MSPage">
        <g id="Homepage-Copy" sketch:type="MSArtboardGroup" transform="translate(-279.000000, -853.000000)">
            <g id="Recommendation" sketch:type="MSLayerGroup" transform="translate(83.000000, 725.000000)">
                <g id="Group" transform="translate(0.000000, 97.000000)" sketch:type="MSShapeGroup">
                    <g id="Oval-61-+-logo-icon-white" transform="translate(0.000000, 1.000000)">
                        <g id="Group">
                            <g id="ebay-copy" transform="translate(196.000000, 30.000000)">
                                <path d="M12.8259278,8.69698446 C5.84783727,8.69698446 0.0329990001,11.6626307 0.0329990001,20.6098502 C0.0329990001,27.6980179 3.94305681,32.16172 13.0061098,32.16172 C23.6737476,32.16172 24.3575818,25.1222992 24.3575818,25.1222992 L19.188608,25.1222992 C19.188608,25.1222992 18.0803367,28.9127567 12.6907912,28.9127567 C8.30115363,28.9127567 5.1439542,25.9422294 5.1439542,21.7786033 L24.8981281,21.7786033 L24.8981281,19.1658664 C24.8981281,15.0467312 22.287805,8.69698446 12.8259278,8.69698446 L12.8259278,8.69698446 Z M12.6457455,12.0361967 C16.824226,12.0361967 19.6728474,14.6005098 19.6728474,18.4438744 L5.25827973,18.4438744 C5.25827973,14.3636727 8.97645639,12.0361967 12.6457455,12.0361967 L12.6457455,12.0361967 Z" id="e" fill="#E53238"></path>
                                <path d="M24.8944615,0.033081914 L24.8944615,27.6684615 C24.8944615,29.2371332 24.7826981,31.4397283 24.7826981,31.4397283 L29.7128099,31.4397283 C29.7128099,31.4397283 29.8897685,29.8577934 29.8897685,28.4120588 C29.8897685,28.4120588 32.3255622,32.2294066 38.9486658,32.2294066 C45.9230607,32.2294066 50.6605011,27.3788235 50.6605011,20.4293521 C50.6605011,13.964359 46.3090089,8.76467107 38.9599254,8.76467107 C32.0780278,8.76467107 29.9395602,12.4874417 29.9395602,12.4874417 L29.9395602,0.033081914 L24.8944615,0.033081914 Z M37.6873893,12.1828512 C42.423546,12.1828512 45.4352217,15.7040615 45.4352217,20.4293521 C45.4352217,25.4963686 41.9568369,28.8112264 37.7211747,28.8112264 C32.6662829,28.8112264 29.9395602,24.8574691 29.9395602,20.4744767 C29.9395602,16.3903818 32.3863284,12.1828512 37.6873893,12.1828512 L37.6873893,12.1828512 Z" id="b" fill="#0064D2"></path>
                                <path d="M62.912883,8.69698446 C52.4148735,8.69698446 51.7415943,14.4552575 51.7415943,15.3754093 L56.9668737,15.3754093 C56.9668737,15.3754093 57.2408859,12.0136344 62.5525197,12.0136344 C66.0041052,12.0136344 68.6787123,13.5962496 68.6787123,16.6388949 L68.6787123,17.7218826 L62.5525197,17.7218826 C54.4195641,17.7218826 50.1199545,20.1052645 50.1199545,24.9418013 C50.1199545,29.7016483 54.0926562,32.2914529 59.4612711,32.2914529 C66.7778595,32.2914529 69.1347954,28.2415299 69.1347954,28.2415299 C69.1347954,29.8523676 69.2587698,31.4397283 69.2587698,31.4397283 L73.9039917,31.4397283 C73.9039917,31.4397283 73.7238084,29.4721451 73.7238084,28.2133269 L73.7238084,17.332684 C73.7238084,10.1983954 67.9793301,8.69698446 62.912883,8.69698446 L62.912883,8.69698446 Z M68.6787123,20.970846 L68.6787123,22.4148298 C68.6787123,24.2981782 67.5185874,28.9804433 60.6887622,28.9804433 C56.9487732,28.9804433 55.3452372,27.1106397 55.3452372,24.9418013 C55.3452372,20.9962565 60.7452846,20.970846 68.6787123,20.970846 L68.6787123,20.970846 Z" id="a" fill="#F5AF02"></path>
                                <path d="M70.9100733,9.6003838 L76.7885151,9.6003838 L85.2248958,26.5317375 L93.6419748,9.6003838 L98.967,9.6003838 L83.6354343,39.7435339 L78.0497883,39.7435339 L82.4739036,31.3407197 L70.9100733,9.6003838 Z" id="y" fill="#86B817"></path>
                            </g>
                        </g>
                    </g>
                </g>
            </g>
        </g>
    </g>
</svg>