<?xml version="1.0" encoding="UTF-8" standalone="no"?>
<svg width="70px" height="34px" viewBox="0 0 70 34" version="1.1" xmlns="http://www.w3.org/2000/svg" xmlns:xlink="http://www.w3.org/1999/xlink" xmlns:sketch="http://www.bohemiancoding.com/sketch/ns">
    <!-- Generator: Sketch 3.3.3 (12081) - http://www.bohemiancoding.com/sketch -->
    <title>etsy-logo</title>
    <desc>Created with Sketch.</desc>
    <defs></defs>
    <g id="Page-1" stroke="none" stroke-width="1" fill="none" fill-rule="evenodd" sketch:type="MSPage">
        <g id="Homepage-Copy" sketch:type="MSArtboardGroup" transform="translate(-464.000000, -1100.000000)" fill="#F56400">
            <g id="Recommendation" sketch:type="MSLayerGroup" transform="translate(83.000000, 725.000000)">
                <g id="Group" transform="translate(0.000000, 97.000000)" sketch:type="MSShapeGroup">
                    <g id="etsy-logo" transform="translate(381.000000, 278.000000)">
                        <path d="M0.819911243,1.0496988 C0.804171598,0.69146988 0.940857988,0.401036145 1.42402367,0.401036145 C1.90718935,0.401036145 6.80884615,0.554650602 10.1050592,0.554650602 C16.9393787,0.554650602 18.578787,0.00839759036 19.752426,0.00839759036 C20.4083136,0.0253975904 20.5464497,0.520445783 20.5464497,0.810674699 C20.5464497,1.10090361 20.2357988,1.71536145 20.2357988,2.51743373 C20.2357988,3.31971084 20.425503,4.17319277 20.425503,4.87285542 C20.425503,5.57272289 19.8215976,5.81154217 19.4937574,5.81154217 C19.1657101,5.81154217 18.9594379,5.69192771 18.941213,5.0946747 C18.9068343,3.95116867 19.752426,2.29561446 11.451213,2.29561446 C7.22284024,2.29561446 7.11928994,2.77366265 7.11928994,4.10478313 C7.11928994,5.43610843 7.15387574,9.83972289 7.15387574,10.5223855 C7.15387574,11.205253 7.36097633,11.4100723 7.91331361,11.4100723 L13.9710059,11.4100723 C15.144645,11.4100723 16.3352663,10.7786145 16.4734024,9.14006024 C16.5251775,8.26957831 16.7666568,8.23537349 17.1982544,8.23537349 C17.629645,8.23537349 18.0266568,8.57680723 17.9576923,9.39587952 C17.8885207,10.2153614 17.7160059,11.0858434 17.7160059,12.2633494 C17.7160059,13.4412651 17.9576923,14.6019759 17.9576923,15.4550482 C17.9576923,16.3087349 16.818432,16.5133494 16.5943491,15.5918675 C16.3698521,14.6701807 16.0418047,13.1168313 13.3840828,13.1168313 L7.99946746,13.1168313 C7.41275148,13.1168313 7.11928994,13.4412651 7.11928994,14.3969518 L7.11928994,21.2073976 C7.11928994,22.3849036 7.48171598,23.6480241 9.89795858,23.6480241 C12.3139941,23.6480241 16.6976923,23.9040482 18.6997337,22.3506988 C19.5625148,21.6508313 19.8215976,20.6781446 20.1148521,19.0907952 C20.2529882,18.3569277 21.8580178,18.3739277 21.7890533,20.0636867 C21.737071,20.8489639 20.9763905,22.5348313 20.9763905,23.6166867 C20.9763905,24.5215783 21.1855621,25.7322651 20.3393491,25.7322651 C19.6242308,25.7322651 19.9249408,25.3717831 16.7840533,25.3717831 C13.6429586,25.3717831 2.80476331,25.4401928 0.992633136,25.4401928 C0.319556213,25.4401928 0.181420118,25.2523735 0.181420118,24.8427349 C0.181420118,24.4333012 0.423106509,24.1258675 0.992633136,24.1258675 C1.56215976,24.1258675 3.97819527,24.1598675 3.97819527,21.121988 L3.97819527,5.3336988 C3.97819527,3.69514458 3.61576923,2.05679518 1.57934911,1.85177108 C0.785532544,1.78356627 0.837307692,1.44213253 0.819911243,1.0496988" id="Fill-3"></path>
                        <path d="M22.9796746,10.6020602 C22.9796746,10.0902169 23.2559467,9.87392771 23.8772485,9.66910843 C25.0508876,9.22546988 26.3970414,7.92814458 27.5358876,4.85585542 C27.8983136,3.88296386 29.1409172,4.13898795 28.9855917,5.12887952 C28.8304734,6.1189759 28.6059763,7.94514458 28.6059763,8.98644578 L33.6109763,8.98644578 C34.1115385,8.98644578 34.1976923,9.58390361 34.1976923,10.061747 C34.1976923,10.5395904 34.0595562,10.9322289 33.6283728,10.9322289 L28.6059763,10.9322289 L28.6059763,19.5002289 C28.6059763,22.5897229 29.6760651,23.3065904 31.1085799,23.3065904 C31.9369822,23.3065904 32.6098521,22.9821566 33.2313609,22.5557229 C33.6455621,22.2482892 34.5775148,22.9821566 34.1115385,23.5796145 C33.6455621,24.1770723 32.0059467,25.9350361 29.6588757,25.9350361 C27.3115976,25.9350361 25.6204142,24.2112771 25.655,21.3268072 C25.6893787,18.4421325 25.8101183,13.6288795 25.8101183,12.9632169 C25.8101183,12.2975542 24.9301479,11.3588675 23.946213,11.3588675 C23.1352071,11.3418675 22.9796746,10.920759 22.9796746,10.6020602" id="Fill-4"></path>
                        <path d="M43.292929,8.49139759 C44.9151479,8.49139759 46.1751479,9.0546506 46.7100888,9.0546506 C47.2450296,9.0546506 47.4521302,8.38898795 48.0388462,8.38898795 C48.6257692,8.38898795 48.7636982,9.0546506 48.6085799,9.61790361 C48.4530473,10.1811566 48.3497041,11.5124819 48.4184615,12.9974217 C48.435858,13.5094699 48.0216568,13.8166988 47.6074556,13.8166988 C47.1932544,13.8166988 47.037929,13.6460843 46.8652071,12.8608072 C46.6928994,12.0757349 45.9852367,10.1811566 43.1893787,10.1811566 C41.1699408,10.1811566 40.3935207,11.5124819 40.3935207,12.3829639 C40.3935207,13.2534458 40.8659172,14.0856265 43.0166568,15.0114096 C45.277574,15.9843012 49.4541716,17.0256024 49.4541716,20.9853735 C49.3160355,24.7063253 45.5882249,25.8840361 43.3964793,25.8840361 C41.5497633,25.8840361 39.8239941,25.3377831 39.0645562,25.3377831 C38.3051183,25.3377831 38.0118639,25.969241 37.5284911,25.969241 C37.0453254,25.969241 36.7000888,25.4231928 36.89,24.8597349 C37.0797041,24.2964819 37.3213905,23.8698434 37.3213905,23.3065904 C37.3213905,22.7433373 36.9935503,21.429012 37.1832544,20.3367108 C37.3733728,19.2444096 38.8574556,19.0907952 38.8402663,20.1490964 C38.8230769,21.2073976 39.3062426,24.2282771 43.1721893,24.2282771 C46.2958876,24.2282771 46.6583136,22.0776747 46.6583136,21.4632169 C46.6583136,20.7121446 46.5027811,19.6368434 42.7577811,18.1691084 C39.0127811,16.7011687 37.5630769,15.3356386 37.5630769,12.9974217 C37.5630769,10.6592048 39.6686686,8.49139759 43.292929,8.49139759" id="Fill-5"></path>
                        <path d="M50.5414497,9.48128916 C50.5414497,9.12285542 50.5586391,8.95224096 50.9728402,8.95224096 C51.3870414,8.95224096 53.5789941,9.02044578 54.7350296,9.02044578 C55.8914793,9.02044578 58.0144675,8.95224096 58.4456509,8.95224096 C58.7565089,8.95224096 58.6701479,9.3276747 58.6701479,9.58390361 C58.6701479,9.83972289 58.7045266,10.2665663 58.1523964,10.2665663 C57.6000592,10.2665663 56.5647633,10.4541807 56.5647633,11.3588675 C56.5647633,12.2633494 56.8083136,12.5154819 57.1686686,13.4924699 C57.5656805,14.5677711 60.430503,21.0705783 60.430503,21.0705783 C60.430503,21.0705783 62.6740237,16.5133494 63.3471006,15.2334337 C64.0201775,13.9533133 64.4343787,12.348759 64.4343787,11.6318916 C64.4343787,10.9150241 63.6923373,10.4371807 63.0708284,10.3177711 C62.4495266,10.1981566 62.1390828,10.2323614 62.1390828,9.49849398 C62.1390828,9.12285542 62.2080473,8.91803614 62.5186982,8.91803614 C62.8293491,8.91803614 64.6932544,9.03744578 66.073787,9.03744578 C67.4547337,9.03744578 69.0595562,8.95224096 69.5083432,8.95224096 C69.9225444,8.95224096 69.8018047,9.2936747 69.8018047,9.58390361 C69.8018047,9.87392771 69.7672189,10.1639518 69.4047929,10.2153614 C69.0423669,10.2665663 67.4375444,10.1981566 65.7633432,13.7142892 C64.0893491,17.2302169 60.7755325,24.3136867 58.3768935,28.9221205 C57.1340828,31.345747 54.7870118,33.9913976 52.3363905,33.9913976 C51.0592012,34.0083976 50.5586391,32.9160964 50.5586391,32.3698434 C50.5586391,31.8235904 50.8692899,30.9361084 52.3189941,30.9361084 C53.2853254,30.9361084 53.5444083,31.3969518 54.0101775,31.3969518 C54.976716,31.3969518 57.4275444,29.0755301 58.1178107,24.9111446 C58.2213609,23.955253 57.2276923,21.6141687 56.8408284,20.5585301 C56.265503,18.9883855 54.5167456,14.4368916 53.2509467,11.734506 C52.8189349,10.8109759 51.680503,10.3347711 50.9556509,10.2493614 C50.6104142,10.1811566 50.5414497,10.061747 50.5414497,9.48128916" id="Fill-6"></path>
                    </g>
                </g>
            </g>
        </g>
    </g>
</svg>