<?xml version="1.0" encoding="UTF-8" standalone="no"?>
<svg width="134px" height="27px" viewBox="0 0 134 27" version="1.1" xmlns="http://www.w3.org/2000/svg" xmlns:xlink="http://www.w3.org/1999/xlink" xmlns:sketch="http://www.bohemiancoding.com/sketch/ns">
    <!-- Generator: Sketch 3.3.3 (12081) - http://www.bohemiancoding.com/sketch -->
    <title>woocommerce</title>
    <desc>Created with Sketch.</desc>
    <defs></defs>
    <g id="Page-1" stroke="none" stroke-width="1" fill="none" fill-rule="evenodd" sketch:type="MSPage">
        <g id="Homepage-Copy" sketch:type="MSArtboardGroup" transform="translate(-432.000000, -860.000000)">
            <g id="Recommendation" sketch:type="MSLayerGroup" transform="translate(83.000000, 725.000000)">
                <g id="Group" transform="translate(0.000000, 97.000000)" sketch:type="MSShapeGroup">
                    <g id="Oval-61-+-logo-icon-white" transform="translate(0.000000, 1.000000)">
                        <g id="Group">
                            <g id="woocommerce" transform="translate(349.000000, 37.000000)">
                                <g id="Group">
                                    <path d="M4.34344828,0.183050847 L41.2165517,0.183050847 C43.55,0.183050847 45.4444828,2.05932203 45.4444828,4.37033898 L45.4444828,18.3050847 C45.4444828,20.6161017 43.55,22.4923729 41.2165517,22.4923729 L28.0013793,22.4923729 L29.8265517,26.8855932 L21.8558621,22.4923729 L4.38965517,22.4923729 C2.0562069,22.4923729 0.161724138,20.6161017 0.161724138,18.3050847 L0.161724138,4.37033898 C0.115517241,2.08220339 2.01,0.183050847 4.34344828,0.183050847 L4.34344828,0.183050847 Z" id="Shape" fill="#9B5C8F"></path>
                                    <path d="M2.40275862,3.98135593 C2.65689655,3.63813559 3.04965517,3.45508475 3.58103448,3.40932203 C4.52827586,3.34067797 5.05965517,3.77542373 5.19827586,4.73644068 C5.77586207,8.58050847 6.39965517,11.8067797 7.06965517,14.4838983 L11.1358621,6.84152542 C11.5055172,6.15508475 11.9675862,5.78898305 12.522069,5.74322034 C13.3306897,5.69745763 13.8389655,6.20084746 14.0468966,7.27627119 C14.5089655,9.72457627 15.1096552,11.7838983 15.8027586,13.5457627 C16.287931,8.8779661 17.0965517,5.53728814 18.2517241,3.45508475 C18.5289655,2.95169492 18.9448276,2.67711864 19.4762069,2.65423729 C19.892069,2.60847458 20.2848276,2.74576271 20.6544828,3.02033898 C21.0010345,3.29491525 21.1858621,3.63813559 21.232069,4.07288136 C21.2551724,4.39322034 21.1858621,4.66779661 21.0472414,4.94237288 C20.3310345,6.26949153 19.7303448,8.48898305 19.2451724,11.5550847 C18.7831034,14.5525424 18.6213793,16.8635593 18.7368966,18.5338983 C18.7831034,18.9915254 18.6906897,19.4033898 18.5058621,19.7466102 C18.2748276,20.1584746 17.9513793,20.3644068 17.5355172,20.4101695 C17.0503448,20.4559322 16.5651724,20.2271186 16.08,19.7237288 C14.3472414,17.9847458 12.9841379,15.3762712 11.9906897,11.9211864 C10.7893103,14.2779661 9.88827586,16.0398305 9.3337931,17.2067797 C8.24793103,19.2889831 7.3237931,20.3415254 6.53827586,20.3872881 C6.03,20.4330508 5.61413793,19.9983051 5.24448276,19.1288136 C4.29724138,16.7262712 3.28068966,12.0813559 2.19482759,5.21694915 C2.0562069,4.73644068 2.14862069,4.32457627 2.40275862,3.98135593 L2.40275862,3.98135593 Z" id="Shape" fill="#FFFFFF"></path>
                                    <path d="M42.21,6.86440678 C41.54,5.69745763 40.5696552,5.01101695 39.2527586,4.73644068 C38.9062069,4.66779661 38.5596552,4.6220339 38.2593103,4.6220339 C36.4803448,4.6220339 35.047931,5.53728814 33.9158621,7.36779661 C32.9455172,8.92372881 32.4603448,10.6398305 32.4603448,12.5389831 C32.4603448,13.9576271 32.7606897,15.170339 33.3382759,16.1771186 C34.0082759,17.3440678 34.9786207,18.0305085 36.2955172,18.3050847 C36.642069,18.3737288 36.9886207,18.4194915 37.2889655,18.4194915 C39.0910345,18.4194915 40.5234483,17.5042373 41.6324138,15.6737288 C42.6027586,14.0949153 43.087931,12.3788136 43.087931,10.479661 C43.1110345,9.06101695 42.8106897,7.84830508 42.21,6.86440678 L42.21,6.86440678 L42.21,6.86440678 Z M39.8765517,11.9440678 C39.6224138,13.1567797 39.1603448,14.0491525 38.4672414,14.6669492 C37.9358621,15.1474576 37.4275862,15.3533898 36.9655172,15.2618644 C36.5265517,15.170339 36.1568966,14.7813559 35.8796552,14.0720339 C35.6486207,13.5 35.5562069,12.9279661 35.5562069,12.4016949 C35.5562069,11.9440678 35.6024138,11.4864407 35.6948276,11.0516949 C35.8565517,10.2966102 36.18,9.56440678 36.6651724,8.8779661 C37.2658621,7.98559322 37.9358621,7.61949153 38.5827586,7.73389831 C39.0217241,7.82542373 39.3913793,8.21440678 39.6686207,8.92372881 C39.8996552,9.49576271 39.992069,10.0677966 39.992069,10.5940678 C40.0151724,11.0745763 39.9689655,11.5322034 39.8765517,11.9440678 L39.8765517,11.9440678 L39.8765517,11.9440678 Z" id="Shape" fill="#FFFFFF"></path>
                                    <path d="M30.612069,6.86440678 C29.942069,5.69745763 28.9486207,5.01101695 27.6548276,4.73644068 C27.3082759,4.66779661 26.9617241,4.6220339 26.6613793,4.6220339 C24.8824138,4.6220339 23.45,5.53728814 22.317931,7.36779661 C21.3475862,8.92372881 20.8624138,10.6398305 20.8624138,12.5389831 C20.8624138,13.9576271 21.1627586,15.170339 21.7403448,16.1771186 C22.4103448,17.3440678 23.3806897,18.0305085 24.6975862,18.3050847 C25.0441379,18.3737288 25.3906897,18.4194915 25.6910345,18.4194915 C27.4931034,18.4194915 28.9255172,17.5042373 30.0344828,15.6737288 C31.0048276,14.0949153 31.49,12.3788136 31.49,10.479661 C31.49,9.06101695 31.2127586,7.84830508 30.612069,6.86440678 L30.612069,6.86440678 L30.612069,6.86440678 Z M28.2786207,11.9440678 C28.0244828,13.1567797 27.5624138,14.0491525 26.8693103,14.6669492 C26.337931,15.1474576 25.8296552,15.3533898 25.3675862,15.2618644 C24.9286207,15.170339 24.5589655,14.7813559 24.2817241,14.0720339 C24.0506897,13.5 23.9582759,12.9279661 23.9582759,12.4016949 C23.9582759,11.9440678 24.0044828,11.4864407 24.0968966,11.0516949 C24.2586207,10.2966102 24.582069,9.56440678 25.0672414,8.8779661 C25.667931,7.98559322 26.337931,7.61949153 26.9848276,7.73389831 C27.4237931,7.82542373 27.7934483,8.21440678 28.0706897,8.92372881 C28.3017241,9.49576271 28.3941379,10.0677966 28.3941379,10.5940678 C28.3941379,11.0745763 28.3710345,11.5322034 28.2786207,11.9440678 L28.2786207,11.9440678 L28.2786207,11.9440678 Z" id="Shape" fill="#FFFFFF"></path>
                                    <path d="M50.1344828,6.70423729 C48.8868966,7.91694915 48.2862069,9.45 48.2862069,11.3262712 C48.2862069,13.3169492 48.8868966,14.9644068 50.1113793,16.1771186 C51.3358621,17.3898305 52.93,18.0305085 54.9168966,18.0305085 C55.4944828,18.0305085 56.1413793,17.9389831 56.8344828,17.7330508 L56.8344828,14.7584746 C56.1875862,14.9415254 55.6331034,15.0330508 55.147931,15.0330508 C54.1775862,15.0330508 53.392069,14.7127119 52.7913793,14.0720339 C52.1906897,13.4084746 51.9134483,12.5389831 51.9134483,11.4177966 C51.9134483,10.3652542 52.2137931,9.51864407 52.7913793,8.85508475 C53.392069,8.16864407 54.1082759,7.84830508 54.9862069,7.84830508 C55.5637931,7.84830508 56.1644828,7.93983051 56.8344828,8.12288136 L56.8344828,5.14830508 C56.2337931,4.98813559 55.5406897,4.91949153 54.8244828,4.91949153 C52.93,4.89661017 51.3589655,5.49152542 50.1344828,6.70423729 L50.1344828,6.70423729 Z M62.98,4.89661017 C61.2703448,4.89661017 59.9534483,5.46864407 58.9831034,6.58983051 C58.0127586,7.71101695 57.5506897,9.28983051 57.5506897,11.3033898 C57.5506897,13.4771186 58.0358621,15.1474576 58.9831034,16.3144068 C59.9303448,17.4813559 61.3165517,18.0533898 63.1417241,18.0533898 C64.8975862,18.0533898 66.2606897,17.4584746 67.207931,16.3144068 C68.1551724,15.1474576 68.6403448,13.5228814 68.6403448,11.440678 C68.6403448,9.35847458 68.1551724,7.73389831 67.1848276,6.58983051 C66.1913793,5.44576271 64.8051724,4.89661017 62.98,4.89661017 L62.98,4.89661017 Z M64.4355172,14.4152542 C64.112069,14.9186441 63.6037931,15.1932203 62.98,15.1932203 C62.3793103,15.1932203 61.9403448,14.9415254 61.6168966,14.4152542 C61.2934483,13.9118644 61.1548276,12.8822034 61.1548276,11.3262712 C61.1548276,8.92372881 61.7555172,7.73389831 63.0031034,7.73389831 C64.2968966,7.73389831 64.9668966,8.94661017 64.9668966,11.3949153 C64.9668966,12.8822034 64.782069,13.9118644 64.4355172,14.4152542 L64.4355172,14.4152542 Z M77.7662069,5.23983051 L77.0962069,8.05423729 C76.9344828,8.76355932 76.7727586,9.49576271 76.6110345,10.2508475 L76.2413793,12.1957627 C75.8948276,10.2508475 75.4096552,7.93983051 74.7858621,5.23983051 L70.4886207,5.23983051 L68.8713793,17.7330508 L72.0827586,17.7330508 L72.9606897,9.12966102 L75.1555172,17.7330508 L77.4427586,17.7330508 L79.5451724,9.15254237 L80.4462069,17.7330508 L83.8655172,17.7330508 L82.1558621,5.23983051 L77.7662069,5.23983051 L77.7662069,5.23983051 Z M93.1762069,5.23983051 L92.5062069,8.05423729 C92.3444828,8.76355932 92.1827586,9.49576271 92.0210345,10.2508475 L91.6513793,12.1957627 C91.3048276,10.2508475 90.8196552,7.93983051 90.1958621,5.23983051 L85.8986207,5.23983051 L84.2813793,17.7330508 L87.4927586,17.7330508 L88.3706897,9.12966102 L90.5655172,17.7330508 L92.8527586,17.7330508 L94.9551724,9.15254237 L95.8562069,17.7330508 L99.2293103,17.7330508 L97.5196552,5.23983051 L93.1762069,5.23983051 L93.1762069,5.23983051 Z M103.665172,12.790678 L106.691724,12.790678 L106.691724,10.2050847 L103.665172,10.2050847 L103.665172,7.91694915 L107.153793,7.91694915 L107.153793,5.26271186 L100.268966,5.26271186 L100.268966,17.7559322 L107.176897,17.7559322 L107.176897,15.1016949 L103.665172,15.1016949 L103.665172,12.790678 L103.665172,12.790678 Z M116.764828,10.8228814 C117.111379,10.2508475 117.296207,9.6559322 117.296207,9.06101695 C117.296207,7.8940678 116.834138,6.9559322 115.91,6.26949153 C114.985862,5.58305085 113.715172,5.23983051 112.121034,5.23983051 L108.147241,5.23983051 L108.147241,17.7330508 L111.543448,17.7330508 L111.543448,12.0584746 L111.589655,12.0584746 L114.338966,17.7330508 L117.943103,17.7330508 L115.216897,12.1042373 C115.886897,11.8067797 116.418276,11.3720339 116.764828,10.8228814 L116.764828,10.8228814 Z M111.543448,10.6169492 L111.543448,7.64237288 C112.352069,7.66525424 112.929655,7.77966102 113.276207,8.05423729 C113.622759,8.32881356 113.784483,8.71779661 113.784483,9.31271186 C113.807586,10.159322 113.045172,10.5940678 111.543448,10.6169492 L111.543448,10.6169492 Z M119.306207,6.70423729 C118.058621,7.91694915 117.457931,9.45 117.457931,11.3262712 C117.457931,13.3169492 118.058621,14.9644068 119.283103,16.1771186 C120.507586,17.3898305 122.101724,18.0305085 124.088621,18.0305085 C124.666207,18.0305085 125.313103,17.9389831 126.006207,17.7330508 L126.006207,14.7584746 C125.35931,14.9415254 124.804828,15.0330508 124.319655,15.0330508 C123.34931,15.0330508 122.563793,14.7127119 121.963103,14.0720339 C121.362414,13.4084746 121.085172,12.5389831 121.085172,11.4177966 C121.085172,10.3652542 121.385517,9.51864407 121.963103,8.85508475 C122.563793,8.16864407 123.28,7.84830508 124.157931,7.84830508 C124.735517,7.84830508 125.336207,7.93983051 126.006207,8.12288136 L126.006207,5.14830508 C125.405517,4.98813559 124.712414,4.91949153 123.996207,4.91949153 C122.124828,4.89661017 120.53069,5.49152542 119.306207,6.70423729 L119.306207,6.70423729 Z M130.349655,15.0559322 L130.349655,12.790678 L133.376207,12.790678 L133.376207,10.2050847 L130.349655,10.2050847 L130.349655,7.91694915 L133.861379,7.91694915 L133.861379,5.26271186 L126.976552,5.26271186 L126.976552,17.7559322 L133.884483,17.7559322 L133.884483,15.1016949 L130.349655,15.0559322 L130.349655,15.0559322 Z" id="Shape" fill="#000000"></path>
                                </g>
                            </g>
                        </g>
                    </g>
                </g>
            </g>
        </g>
    </g>
</svg>